<?xml version="1.0" encoding="utf-8"?>
<!-- Generator: Adobe Illustrator 23.0.3, SVG Export Plug-In . SVG Version: 6.00 Build 0)  -->
<svg version="1.1" id="Capa_1" xmlns="http://www.w3.org/2000/svg" xmlns:xlink="http://www.w3.org/1999/xlink" x="0px" y="0px"
	 viewBox="0 0 1200 1200" enable-background="new 0 0 1200 1200" xml:space="preserve">
<g>
	<path fill="#100A38" d="M1150,682.513c0,51.355-56.14,98.926-158.081,133.945c-20.338,6.987-42.101,13.294-64.959,18.967
		c-57.67,62.575-177.283,102.782-307.085,102.782c-131.1,0-248.793-39.39-307.16-102.8c-22.829-5.669-44.568-11.97-64.883-18.949
		c-101.94-35.019-158.081-82.59-158.081-133.945s56.142-98.926,158.081-133.945c12.464-4.282,25.441-8.321,38.882-12.114
		c14.07-171.471,158.098-306.707,333.137-306.707c175.063,0,319.114,135.236,333.185,306.707
		c13.44,3.793,26.419,7.833,38.883,12.114C1093.86,583.587,1150,631.158,1150,682.513z M1042.401,425.643l11.81,4.225
		c9.908,3.544,17.615,11.476,20.873,21.482l4.646,14.268c1.06,3.257,5.668,3.257,6.728,0l4.645-14.268
		c3.258-10.005,10.965-17.938,20.873-21.482l11.811-4.225c3.128-1.119,3.128-5.543,0-6.663l-11.811-4.225
		c-9.907-3.544-17.615-11.476-20.873-21.482l-4.645-14.268c-1.061-3.257-5.669-3.257-6.728,0l-4.646,14.268
		c-3.258,10.005-10.965,17.938-20.873,21.482l-11.81,4.225C1039.272,420.099,1039.272,424.523,1042.401,425.643z M939.475,328.305
		l15.126,5.413c12.693,4.539,22.564,14.698,26.737,27.513l5.949,18.277c0.17,0.521,0.41,0.978,0.705,1.369
		c0.882,1.173,2.243,1.76,3.605,1.76l0,0c0.908,0,1.815-0.261,2.581-0.782c0.765-0.521,1.388-1.304,1.728-2.346l5.952-18.277
		c4.172-12.815,14.047-22.975,26.734-27.513l15.126-5.413c0.501-0.179,0.94-0.425,1.316-0.72c1.129-0.885,1.693-2.216,1.693-3.547
		c0-1.331-0.564-2.663-1.693-3.547c-0.375-0.295-0.815-0.54-1.316-0.719l-15.126-5.411c-12.687-4.539-22.562-14.7-26.734-27.515
		l-5.952-18.277c-0.339-1.042-0.963-1.824-1.728-2.345c-0.766-0.521-1.673-0.782-2.581-0.782l0,0c-1.362,0-2.723,0.586-3.605,1.759
		c-0.295,0.391-0.535,0.847-0.705,1.368l-5.949,18.277c-4.173,12.815-14.044,22.976-26.737,27.515l-15.126,5.411
		c-2.003,0.717-3.004,2.492-3.004,4.267C936.471,325.813,937.472,327.588,939.475,328.305z M255.729,921.174l-11.811-4.224
		c-9.908-3.545-17.615-11.478-20.873-21.482l-4.645-14.268c-0.265-0.814-0.753-1.425-1.351-1.832
		c-0.598-0.407-1.306-0.61-2.015-0.61l0,0c-0.354,0-0.709,0.051-1.049,0.153c-1.021,0.305-1.917,1.068-2.314,2.289l-4.647,14.268
		c-3.256,10.004-10.965,17.937-20.873,21.482l-11.81,4.224c-0.391,0.14-0.733,0.331-1.026,0.561
		c-0.586,0.46-0.978,1.075-1.173,1.742c-0.098,0.333-0.147,0.68-0.147,1.026c0,0.347,0.049,0.693,0.147,1.026
		c0.195,0.667,0.586,1.283,1.173,1.743c0.293,0.23,0.635,0.422,1.026,0.562l11.81,4.224c9.908,3.545,17.617,11.478,20.873,21.482
		l4.647,14.268c0.397,1.221,1.293,1.984,2.314,2.289c0.34,0.102,0.695,0.153,1.049,0.153l0,0c0.709,0,1.417-0.203,2.015-0.61
		c0.598-0.407,1.085-1.018,1.351-1.832l4.645-14.268c3.258-10.004,10.965-17.937,20.873-21.482l11.811-4.224
		c1.173-0.42,1.906-1.304,2.199-2.305c0.196-0.667,0.196-1.386,0-2.053C257.635,922.477,256.902,921.593,255.729,921.174z
		 M154.172,849.71l-14.693-5.256c-12.326-4.409-21.916-14.278-25.969-26.725l-5.78-17.75c-1.319-4.052-7.051-4.052-8.37,0
		l-5.78,17.75c-4.053,12.447-13.642,22.316-25.968,26.725l-14.693,5.256c-3.892,1.392-3.892,6.896,0,8.289l14.693,5.256
		c12.326,4.409,21.915,14.278,25.968,26.726l5.78,17.75c1.319,4.052,7.051,4.052,8.37,0l5.78-17.75
		c4.053-12.448,13.643-22.316,25.969-26.726l14.693-5.256C158.064,856.607,158.064,851.102,154.172,849.71z"/>
	<path fill="#C4FCFF" d="M605.129,244.813c4.881-0.223,9.787-0.352,14.722-0.352c176.239,0,319.617,143.358,319.617,319.568
		c0,22.022-2.234,43.892-6.649,65.056c-72.978,42.408-163.017,68.707-258.21,76.053c47.567-8.798,92.227-22.33,132.753-39.841
		c39.253-16.959,65.2-55.581,65.293-98.338v-0.718C872.655,405.981,757.307,272.762,605.129,244.813z"/>
	<path fill="#E9FEFF" d="M605.129,244.813c-169.402,7.721-304.846,147.942-304.846,319.216c0,22.035,2.234,43.903,6.646,65.056
		c86.856,50.471,197.83,78.236,312.923,78.236c18.392,0,36.658-0.787,54.758-2.183c47.567-8.798,92.227-22.33,132.753-39.841
		c39.253-16.959,65.2-55.581,65.293-98.338v-0.718C872.655,405.981,757.307,272.762,605.129,244.813z M450.951,317.064
		c15.564-11.364,32.269-21.356,49.652-29.699c3.659-1.755,8.056-0.214,9.816,3.45c1.758,3.662,0.214,8.057-3.45,9.816
		c-16.575,7.953-32.503,17.482-47.343,28.316c-1.308,0.956-2.827,1.415-4.332,1.415c-2.268,0-4.507-1.045-5.947-3.019
		C446.951,324.062,447.67,319.461,450.951,317.064z M346.984,494.343c-0.819,3.361-3.828,5.615-7.141,5.615
		c-0.577,0-1.162-0.068-1.749-0.212c-3.946-0.963-6.366-4.943-5.403-8.891c13.259-54.364,43.089-105.331,83.998-143.513
		c2.971-2.775,7.626-2.613,10.398,0.357c2.773,2.971,2.613,7.626-0.357,10.398C387.893,394.347,359.571,442.733,346.984,494.343z
		 M461.748,575.647c-20.713,0-37.505-7.653-37.505-17.094c0-9.442,16.792-17.096,37.505-17.096s37.505,7.653,37.505,17.096
		C499.253,567.993,482.461,575.647,461.748,575.647z M558.206,476.901c-4.995,0.956-9.809-2.304-10.77-7.292
		c-4.431-23.023-26.096-38.38-49.309-34.935c-23.842,3.528-40.37,25.794-36.844,49.636c0.744,5.024-2.728,9.699-7.752,10.443
		c-0.456,0.066-0.909,0.101-1.356,0.101c-4.485,0-8.411-3.285-9.087-7.853c-5.009-33.873,18.473-65.51,52.348-70.522
		c32.984-4.878,63.761,16.932,70.062,49.652C566.457,471.119,563.194,475.94,558.206,476.901z M661.871,507.879
		c-8.101,8.483-22.021,13.546-37.236,13.546c-15.215,0-29.133-5.063-37.234-13.545c-3.508-3.673-3.373-9.494,0.3-13.002
		c3.673-3.506,9.494-3.375,13.002,0.3c2.675,2.801,7.041,4.995,12.19,6.351c3.622,0.953,7.62,1.504,11.741,1.504
		c4.123,0,8.122-0.551,11.746-1.505c5.15-1.356,9.515-3.55,12.189-6.352c3.508-3.675,9.327-3.808,13.002-0.3
		C665.248,498.384,665.381,504.206,661.871,507.879z M701.835,469.61c-0.963,4.988-5.805,8.244-10.77,7.29
		c-4.99-0.961-8.251-5.784-7.292-10.771c6.304-32.718,37.061-54.531,70.06-49.651c33.879,5.011,57.361,36.648,52.35,70.522
		c-0.675,4.568-4.602,7.853-9.085,7.853c-0.445,0-0.902-0.034-1.358-0.101c-5.022-0.744-8.492-5.419-7.749-10.443
		c3.524-23.842-13.004-46.109-36.849-49.636C727.93,431.238,706.268,446.587,701.835,469.61z M787.525,575.647
		c-20.713,0-37.507-7.653-37.507-17.094c0-9.442,16.794-17.096,37.507-17.096s37.503,7.653,37.503,17.096
		C825.029,567.993,808.238,575.647,787.525,575.647z"/>
	<path fill="#DE750B" d="M420.775,836.102c2.824,2.14,5.761,4.233,8.753,6.303c-65.532-8.843-125.685-22.263-176.915-39.863
		c-94.152-32.343-148.149-76.091-148.149-120.029c0-43.937,53.997-87.685,148.149-120.029c10.667-3.665,21.787-7.116,33.193-10.417
		c-0.005,0.145-0.012,0.29-0.017,0.435c-70.692,30.625-112.95,69.347-112.95,111.469c0,53.394,67.831,101.341,175.503,134.239
		C374.613,806.234,398.881,819.513,420.775,836.102z M460.427,860.99c-41.969-4.574-82.055-10.97-119.506-19.057
		c59.785,50.079,165.733,81.561,278.954,81.561c43.684,0,86.102-4.625,125.182-13.146c-16.141,1.279-32.644,1.961-49.449,1.961
		C604.037,912.308,521.04,892.729,460.427,860.99z M208.402,644.196c-10.581,0-19.159,8.578-19.159,19.159
		c0,10.581,8.578,19.158,19.159,19.158c10.579,0,19.158-8.577,19.158-19.158C227.559,652.775,218.981,644.196,208.402,644.196z
		 M320.746,712.949c-10.581,0-19.158,8.577-19.158,19.158s8.577,19.158,19.158,19.158s19.158-8.577,19.158-19.158
		S331.327,712.949,320.746,712.949z M622.402,762.637c-10.581,0-19.159,8.577-19.159,19.158c0,10.581,8.578,19.158,19.159,19.158
		c10.579,0,19.158-8.577,19.158-19.158C641.559,771.214,632.981,762.637,622.402,762.637z M471.041,751.51
		c-10.581,0-19.159,8.577-19.159,19.158s8.578,19.158,19.159,19.158s19.158-8.577,19.158-19.158S481.622,751.51,471.041,751.51z
		 M1031.301,644.196c-10.579,0-19.158,8.578-19.158,19.159c0,10.581,8.578,19.158,19.158,19.158
		c10.583,0,19.158-8.577,19.158-19.158C1050.458,652.775,1041.883,644.196,1031.301,644.196z M918.956,712.949
		c-10.579,0-19.158,8.577-19.158,19.158s8.578,19.158,19.158,19.158c10.579,0,19.158-8.577,19.158-19.158
		S929.535,712.949,918.956,712.949z M768.663,751.51c-10.583,0-19.158,8.577-19.158,19.158s8.575,19.158,19.158,19.158
		c10.579,0,19.158-8.577,19.158-19.158S779.242,751.51,768.663,751.51z M461.748,541.457c-20.713,0-37.505,7.653-37.505,17.096
		c0,9.44,16.792,17.094,37.505,17.094c20.713,0,37.505-7.653,37.505-17.094C499.253,549.111,482.461,541.457,461.748,541.457z
		 M787.526,541.457c-20.713,0-37.507,7.653-37.507,17.096c0,9.44,16.794,17.094,37.507,17.094c20.713,0,37.503-7.653,37.503-17.094
		C825.029,549.111,808.239,541.457,787.526,541.457z M936.472,324.039c0,1.775,1.002,3.549,3.003,4.266l15.127,5.414
		c12.691,4.539,22.563,14.698,26.737,27.513l5.949,18.277c0.339,1.043,0.963,1.825,1.728,2.346c0.765,0.521,1.672,0.781,2.579,0.781
		c1.216,0,2.401-0.509,3.275-1.443c0.432-0.461,0.811-0.994,1.035-1.684l5.952-18.277c4.171-12.815,14.046-22.974,26.734-27.513
		l15.127-5.414c1.503-0.537,2.443-1.67,2.819-2.952c0.125-0.427,0.188-0.871,0.188-1.314v0c0-0.444-0.063-0.887-0.188-1.315
		c-0.376-1.282-1.316-2.415-2.819-2.953l-15.127-5.41c-12.688-4.539-22.563-14.701-26.734-27.515l-5.952-18.277
		c-0.679-2.085-2.493-3.127-4.311-3.127c-1.814,0-3.628,1.042-4.307,3.127l-5.949,18.277c-4.174,12.814-14.046,22.976-26.737,27.515
		l-15.127,5.41C937.474,320.488,936.472,322.264,936.472,324.039z M257.709,923.003c-0.367-0.793-1.002-1.48-1.979-1.829
		l-11.811-4.224c-9.909-3.546-17.617-11.477-20.875-21.482l-4.645-14.268c-0.133-0.407-0.322-0.764-0.551-1.069
		c-0.011-0.014-0.027-0.022-0.038-0.036c-0.222-0.286-0.477-0.533-0.762-0.727c-0.066-0.045-0.144-0.061-0.212-0.101
		c-0.242-0.141-0.488-0.278-0.753-0.357c-0.341-0.102-0.695-0.153-1.05-0.153c-1.415,0-2.833,0.814-3.362,2.443l-4.647,14.268
		c-3.256,10.004-10.965,17.936-20.873,21.482l-11.81,4.224c-1.564,0.559-2.346,1.943-2.346,3.33c0,1.385,0.781,2.771,2.346,3.332
		l11.81,4.225c9.907,3.544,17.616,11.477,20.873,21.482l4.647,14.268c0.53,1.627,1.947,2.441,3.362,2.441
		c1.417,0,2.834-0.814,3.366-2.441l4.645-14.268c3.258-10.004,10.965-17.938,20.875-21.482l11.811-4.225
		c0.977-0.35,1.612-1.038,1.979-1.831c0.22-0.476,0.367-0.981,0.367-1.5C258.075,923.985,257.929,923.479,257.709,923.003z"/>
	<path fill="#EEAD35" d="M898.817,841.936c-36.821,30.925-90.95,54.716-153.761,68.411c-16.141,1.279-32.644,1.961-49.449,1.961
		c-91.571,0-174.567-19.579-235.18-51.319c50.923,5.55,104.53,8.467,159.447,8.467C720.049,869.457,815.926,859.833,898.817,841.936
		z M1135.286,682.513c0,43.937-53.999,87.685-148.149,120.029c-21.045,7.23-43.665,13.716-67.465,19.517l-0.246-0.214
		c-0.102,0.118-0.216,0.233-0.319,0.351c-86.901,21.12-190.443,32.547-299.233,32.547c-66.253,0-130.536-4.267-190.346-12.338
		c-2.992-2.07-5.93-4.163-8.753-6.303c-21.894-16.589-46.162-29.868-72.433-37.891c-107.672-32.898-175.503-80.845-175.503-134.239
		c0-42.122,42.258-80.844,112.95-111.469c-0.131,3.829-0.22,7.667-0.22,11.527c0,24.183,2.577,48.187,7.659,71.342l0.688,3.131
		l2.759,1.627c89.491,52.817,204.264,81.906,323.177,81.906c118.942,0,233.733-29.088,323.223-81.906l2.759-1.627l0.686-3.131
		c5.087-23.17,7.662-47.174,7.662-71.342c0-4.006-0.096-7.989-0.237-11.962c11.405,3.302,22.525,6.752,33.193,10.417
		C1081.287,594.828,1135.286,638.576,1135.286,682.513z M227.559,663.356c0-10.581-8.578-19.159-19.158-19.159
		c-10.581,0-19.159,8.578-19.159,19.159c0,10.581,8.578,19.158,19.159,19.158C218.981,682.513,227.559,673.937,227.559,663.356z
		 M339.904,732.106c0-10.581-8.577-19.158-19.158-19.158s-19.158,8.577-19.158,19.158s8.577,19.158,19.158,19.158
		S339.904,742.687,339.904,732.106z M490.199,770.667c0-10.581-8.577-19.158-19.158-19.158s-19.159,8.577-19.159,19.158
		s8.578,19.158,19.159,19.158S490.199,781.249,490.199,770.667z M641.559,781.795c0-10.581-8.578-19.158-19.158-19.158
		c-10.581,0-19.159,8.577-19.159,19.158c0,10.581,8.578,19.158,19.159,19.158C632.981,800.952,641.559,792.376,641.559,781.795z
		 M787.82,770.667c0-10.581-8.578-19.158-19.158-19.158c-10.583,0-19.158,8.577-19.158,19.158s8.575,19.158,19.158,19.158
		C779.242,789.825,787.82,781.249,787.82,770.667z M938.114,732.106c0-10.581-8.578-19.158-19.158-19.158
		c-10.579,0-19.158,8.577-19.158,19.158s8.578,19.158,19.158,19.158C929.535,751.264,938.114,742.687,938.114,732.106z
		 M1050.458,663.356c0-10.581-8.575-19.159-19.158-19.159c-10.579,0-19.158,8.578-19.158,19.159
		c0,10.581,8.578,19.158,19.158,19.158C1041.883,682.513,1050.458,673.937,1050.458,663.356z M1042.401,425.643l11.811,4.225
		c9.907,3.544,17.613,11.477,20.871,21.482l4.645,14.268c1.063,3.256,5.669,3.256,6.728,0l4.648-14.268
		c3.258-10.004,10.964-17.938,20.871-21.482l11.811-4.225c3.129-1.119,3.129-5.543,0-6.662l-11.811-4.224
		c-9.907-3.546-17.613-11.477-20.871-21.482l-4.648-14.268c-1.06-3.256-5.665-3.256-6.728,0l-4.645,14.268
		c-3.258,10.004-10.964,17.936-20.871,21.482l-11.811,4.224C1039.272,420.1,1039.272,424.524,1042.401,425.643z M154.171,849.71
		l-14.692-5.255c-12.327-4.409-21.915-14.277-25.969-26.726l-5.78-17.749c-1.318-4.052-7.05-4.052-8.37,0l-5.78,17.749
		c-4.052,12.449-13.642,22.317-25.969,26.726l-14.692,5.255c-3.892,1.392-3.892,6.897,0,8.289l14.692,5.255
		c12.327,4.409,21.916,14.277,25.969,26.726l5.78,17.749c1.32,4.052,7.052,4.052,8.37,0l5.78-17.749
		c4.054-12.449,13.642-22.317,25.969-26.726l14.692-5.255C158.063,856.607,158.063,851.102,154.171,849.71z"/>
</g>
</svg>
